<svg width="24" height="25" viewBox="0 0 24 25" fill="none" xmlns="http://www.w3.org/2000/svg">
<g clip-path="url(#clip0_310_796)">
<path d="M16.4989 0.882568C15.2194 0.971068 13.7239 1.79006 12.8525 2.85656C12.0575 3.82405 11.4035 5.26104 11.6585 6.65753C13.0564 6.70103 14.5009 5.86254 15.3379 4.77805C16.1209 3.76855 16.7134 2.34056 16.4989 0.882568Z" fill="#B9B9B9"/>
<path d="M21.5555 8.93449C20.327 7.394 18.6005 6.5 16.97 6.5C14.8175 6.5 13.907 7.53049 12.4116 7.53049C10.8696 7.53049 9.69807 6.503 7.83658 6.503C6.0081 6.503 4.06111 7.62049 2.82661 9.53148C1.09112 12.2225 1.38812 17.2819 4.20061 21.5914C5.2071 23.1334 6.55109 24.8674 8.30908 24.8824C9.87357 24.8974 10.3146 23.8789 12.4341 23.8684C14.5535 23.8564 14.9555 24.8959 16.517 24.8794C18.2765 24.8659 19.694 22.9444 20.7005 21.4024C21.422 20.2969 21.6905 19.7404 22.25 18.4924C18.1805 16.9429 17.528 11.156 21.5555 8.93449Z" fill="#B9B9B9"/>
</g>
<defs>
<clipPath id="clip0_310_796">
<rect width="24" height="24" fill="white" transform="translate(0 0.882568)"/>
</clipPath>
</defs>
</svg>
