<svg width="216" height="65" viewBox="0 0 216 65" fill="none" xmlns="http://www.w3.org/2000/svg">
<path d="M0 1.29028C3.79619 1.29028 6.07296 0.372927 9.72074 1.29028C16.0933 2.89287 15.6016 9.55595 21.7287 11.7708C27.3029 13.7857 31.3287 10.9435 37.1676 12.2698C50.3128 15.2559 49.0392 30.7728 62.3271 33.2308C67.57 34.2007 70.8512 32.0963 76.0505 33.2308C87.0799 35.6374 85.7611 54.0913 96.6356 51.1974C101.78 49.8284 101.884 44.8394 106.928 43.2122C119.373 39.198 118.656 66.5208 131.516 63.6741C139.017 62.0137 138.459 53.8049 145.811 51.6964C151.115 50.1754 154.572 52.3332 160.106 51.6964C185.469 48.7788 181.491 13.5176 206.995 11.7708C210.111 11.5573 215 11.7708 215 11.7708" stroke="url(#paint0_linear_310_485)" stroke-opacity="0.2"/>
<path d="M76 32.9401C87.0221 35.3695 85.7041 53.9984 96.5714 51.077C101.712 49.6951 101.816 44.6587 106.857 43.0162C119.294 38.9639 118.577 66.5458 131.429 63.6722C138.925 61.996 138.367 53.7093 145.714 51.5808C151.014 50.0454 154.469 52.2236 160 51.5808C173.164 50.0511 178.419 39.7132 184 29.8826" stroke="url(#paint1_linear_310_485)" stroke-width="2" stroke-linecap="round"/>
<defs>
<linearGradient id="paint0_linear_310_485" x1="0" y1="32.3826" x2="215" y2="32.3826" gradientUnits="userSpaceOnUse">
<stop stop-color="#00F5A0"/>
<stop offset="1" stop-color="#00D9F5"/>
</linearGradient>
<linearGradient id="paint1_linear_310_485" x1="76" y1="46.8826" x2="184" y2="46.8826" gradientUnits="userSpaceOnUse">
<stop stop-color="#00F5A0"/>
<stop offset="1" stop-color="#00D9F5"/>
</linearGradient>
</defs>
</svg>
