<svg width="24" height="25" viewBox="0 0 24 25" fill="none" xmlns="http://www.w3.org/2000/svg">
<path fill-rule="evenodd" clip-rule="evenodd" d="M8.4277 3.88257C8.8477 3.88257 9.1887 4.21695 9.1887 4.62979C9.1887 5.04164 8.8487 5.37602 8.4277 5.37602L6.7987 5.377C5.4467 5.37896 4.3467 6.45861 4.3467 7.78536V9.64458C4.3467 10.0564 4.0047 10.3918 3.5847 10.3918C3.1647 10.3918 2.8237 10.0564 2.8237 9.64458V7.78536C2.8237 5.63588 4.6067 3.88551 6.7977 3.88355L8.4267 3.88257H8.4277ZM15.6006 3.88286H17.1936C19.3906 3.88286 21.1766 5.63422 21.1766 7.78859V9.64487C21.1766 10.0567 20.8366 10.3921 20.4156 10.3921C19.9956 10.3921 19.6546 10.0567 19.6546 9.64487V7.78859C19.6546 6.45792 18.5506 5.37534 17.1936 5.37534H15.6006C15.1806 5.37534 14.8396 5.04193 14.8396 4.63008C14.8396 4.21725 15.1806 3.88286 15.6006 3.88286ZM14.7625 7.62523H9.2385C7.9745 7.63797 6.9585 8.65093 6.9695 9.89139V11.1368C6.9725 11.2819 7.0915 11.4005 7.2395 11.4054H16.7595C16.9085 11.4015 17.0275 11.2829 17.0325 11.1368V9.89139C17.0335 9.29225 16.7975 8.71663 16.3715 8.28811C15.9485 7.86351 15.3675 7.62523 14.7625 7.62523ZM1.762 12.9238H22.239C22.659 12.9238 23 13.2582 23 13.671C23 14.0829 22.659 14.4163 22.239 14.4163H21.177V17.9759C21.177 20.1312 19.39 21.8826 17.194 21.8826H15.601C15.18 21.8826 14.839 21.5482 14.839 21.1353C14.839 20.7235 15.18 20.3891 15.601 20.3891H17.194C18.551 20.3891 19.655 19.3075 19.655 17.9759V14.4163H17.032V15.4077C17.042 16.6481 16.027 17.6621 14.762 17.6738H9.238C7.974 17.6621 6.959 16.6481 6.969 15.4077V14.4163H4.346V17.9798C4.346 19.3065 5.447 20.3862 6.8 20.3881L8.428 20.3891C8.848 20.3891 9.189 20.7235 9.189 21.1353C9.188 21.5482 8.848 21.8826 8.427 21.8826L6.798 21.8816C4.607 21.8796 2.823 20.1293 2.823 17.9798V14.4163H1.762C1.342 14.4163 1 14.0829 1 13.671C1 13.2582 1.342 12.9238 1.762 12.9238Z" fill="#00F6FF"/>
</svg>
