<svg width="48" height="33" viewBox="0 0 48 33" fill="none" xmlns="http://www.w3.org/2000/svg">
<path d="M13.4768 13.6191C13.4708 13.5649 13.4225 13.5407 13.3863 13.5407C13.3501 13.5407 12.5599 13.4804 12.5599 13.4804C12.5599 13.4804 12.011 12.9315 11.9446 12.8772C11.8843 12.8169 11.7697 12.835 11.7215 12.847C11.7154 12.847 11.6008 12.8832 11.4138 12.9435C11.2268 12.4067 10.9071 11.9181 10.334 11.9181H10.2798C10.1229 11.713 9.91783 11.6165 9.74893 11.6165C8.42184 11.6165 7.78243 13.2753 7.58337 14.1198C7.0646 14.2827 6.69663 14.3913 6.65441 14.4094C6.36486 14.4998 6.35883 14.5059 6.32264 14.7773C6.29248 14.9824 5.53845 20.8156 5.53845 20.8156L11.4078 21.9134L14.5928 21.2257C14.5988 21.2137 13.4829 13.6734 13.4768 13.6191ZM11.0881 13.028C10.9433 13.0702 10.7684 13.1245 10.5934 13.1848V13.0762C10.5934 12.7505 10.5512 12.4851 10.4728 12.274C10.7744 12.3102 10.9614 12.6419 11.0881 13.028ZM10.1048 12.3403C10.1832 12.5454 10.2375 12.835 10.2375 13.2331V13.2934C9.9118 13.396 9.56796 13.4985 9.21206 13.6131C9.41112 12.8531 9.79115 12.4791 10.1048 12.3403ZM9.71876 11.9663C9.77909 11.9663 9.83941 11.9905 9.88767 12.0266C9.45938 12.2257 9.00697 12.7264 8.81997 13.7398C8.53645 13.8303 8.26501 13.9087 8.00562 13.9931C8.22278 13.221 8.76568 11.9663 9.71876 11.9663Z" fill="#95BF47"/>
<path d="M13.3864 13.5288C13.3502 13.5288 12.56 13.4685 12.56 13.4685C12.56 13.4685 12.0111 12.9196 11.9447 12.8653C11.9206 12.8412 11.8904 12.8291 11.8663 12.8291L11.426 21.9136L14.611 21.2259C14.611 21.2259 13.495 13.6736 13.489 13.6193C13.4648 13.565 13.4226 13.5409 13.3864 13.5288Z" fill="#5E8E3E"/>
<path d="M10.3341 15.2901L9.94807 16.4543C9.94807 16.4543 9.5982 16.2673 9.18197 16.2673C8.56066 16.2673 8.53049 16.6594 8.53049 16.756C8.53049 17.2868 9.91791 17.4919 9.91791 18.7405C9.91791 19.7238 9.29659 20.3572 8.45811 20.3572C7.4447 20.3572 6.93799 19.7298 6.93799 19.7298L7.20944 18.8371C7.20944 18.8371 7.74027 19.2955 8.18666 19.2955C8.48224 19.2955 8.60288 19.0663 8.60288 18.8974C8.60288 18.2037 7.46882 18.1735 7.46882 17.0274C7.46882 16.0683 8.1565 15.1393 9.54994 15.1393C10.0687 15.1333 10.3341 15.2901 10.3341 15.2901Z" fill="white"/>
<path d="M18.3087 17.4798C17.9889 17.3109 17.8261 17.1601 17.8261 16.9611C17.8261 16.7077 18.0553 16.5448 18.4112 16.5448C18.8274 16.5448 19.1954 16.7137 19.1954 16.7137L19.4849 15.827C19.4849 15.827 19.2195 15.6219 18.4353 15.6219C17.3435 15.6219 16.5834 16.2493 16.5834 17.13C16.5834 17.6306 16.9393 18.0107 17.4099 18.2821C17.7959 18.4932 17.9286 18.6501 17.9286 18.8793C17.9286 19.1145 17.7356 19.3076 17.3797 19.3076C16.8549 19.3076 16.3542 19.0361 16.3542 19.0361L16.0466 19.9229C16.0466 19.9229 16.505 20.2305 17.2771 20.2305C18.3991 20.2305 19.2135 19.6755 19.2135 18.6802C19.2014 18.1373 18.7973 17.7633 18.3087 17.4798ZM22.7846 15.6098C22.2296 15.6098 21.7953 15.8753 21.4635 16.2734L21.4514 16.2674L21.934 13.758H20.6854L19.4668 20.1521H20.7155L21.1317 17.9684C21.2946 17.142 21.7229 16.6293 22.121 16.6293C22.4045 16.6293 22.5131 16.8223 22.5131 17.0938C22.5131 17.2627 22.5011 17.4798 22.4588 17.6487L21.9883 20.1521H23.237L23.7256 17.5703C23.7799 17.2989 23.8161 16.9731 23.8161 16.7499C23.81 16.0321 23.4421 15.6098 22.7846 15.6098ZM26.6392 15.6098C25.1311 15.6098 24.1358 16.9671 24.1358 18.4812C24.1358 19.4463 24.733 20.2305 25.855 20.2305C27.3329 20.2305 28.3282 18.9095 28.3282 17.3592C28.3342 16.4604 27.8154 15.6098 26.6392 15.6098ZM26.0239 19.2774C25.5956 19.2774 25.4206 18.9155 25.4206 18.457C25.4206 17.7392 25.7886 16.575 26.4703 16.575C26.9106 16.575 27.0614 16.9611 27.0614 17.329C27.0614 18.0951 26.6814 19.2774 26.0239 19.2774ZM31.5313 15.6098C30.6868 15.6098 30.2102 16.3578 30.2102 16.3578H30.1982L30.2706 15.6883H29.1606C29.1063 16.1407 29.0038 16.8344 28.9073 17.3471L28.0447 21.9255H29.2933L29.6432 20.0737H29.6734C29.6734 20.0737 29.9328 20.2365 30.4033 20.2365C31.8751 20.2365 32.8343 18.7285 32.8343 17.2084C32.8282 16.3639 32.4482 15.6098 31.5313 15.6098ZM30.3369 19.2895C30.0112 19.2895 29.8181 19.1025 29.8181 19.1025L30.0232 17.9383C30.168 17.1541 30.5782 16.6414 31.0125 16.6414C31.3986 16.6414 31.5132 16.9972 31.5132 17.329C31.5192 18.1373 31.0366 19.2895 30.3369 19.2895ZM34.6138 13.8183C34.2156 13.8183 33.8959 14.138 33.8959 14.5421C33.8959 14.9101 34.1312 15.1695 34.4871 15.1695H34.4991C34.8912 15.1695 35.223 14.9041 35.229 14.4456C35.2351 14.0777 34.9878 13.8183 34.6138 13.8183ZM32.8644 20.1461H34.1131L34.9576 15.7064H33.7029L32.8644 20.1461ZM38.1426 15.7003H37.274L37.3162 15.4952C37.3886 15.0669 37.6419 14.693 38.0642 14.693C38.2874 14.693 38.4623 14.7593 38.4623 14.7593L38.7036 13.7761C38.7036 13.7761 38.4925 13.6675 38.022 13.6675C37.5816 13.6675 37.1352 13.7942 36.7974 14.0837C36.3691 14.4456 36.1701 14.9704 36.0736 15.5013L36.0374 15.7064H35.4522L35.2652 16.6534H35.8504L35.1868 20.1521H36.4355L37.099 16.6534H37.9616L38.1426 15.7003ZM41.1527 15.7064C41.1527 15.7064 40.3685 17.6789 40.0247 18.7586H40.0126C39.9885 18.4088 39.705 15.7064 39.705 15.7064H38.3899L39.144 19.7721C39.156 19.8625 39.15 19.9168 39.1138 19.9772C38.969 20.2607 38.7217 20.5321 38.4322 20.7312C38.1969 20.9001 37.9315 21.0147 37.7204 21.0871L38.0702 22.1487C38.3236 22.0945 38.8544 21.8833 39.2948 21.4671C39.8618 20.9363 40.3926 20.1099 40.9355 18.9879L42.4617 15.7003H41.1527V15.7064Z" fill="black"/>
</svg>
