<svg width="32" height="33" viewBox="0 0 32 33" fill="none" xmlns="http://www.w3.org/2000/svg">
<path d="M11.7333 21.4793L13.3587 12.3364H15.8984L14.3238 21.4793H11.7333Z" fill="#3C58BF"/>
<path d="M11.7333 21.4793L13.8158 12.3364H15.8984L14.3238 21.4793H11.7333Z" fill="#293688"/>
<path d="M23.5175 12.4381C23.0095 12.2349 22.1968 12.0317 21.181 12.0317C18.6413 12.0317 16.8127 13.3016 16.8127 15.1302C16.8127 16.5016 18.0825 17.2127 19.0984 17.6698C20.1143 18.127 20.4191 18.4317 20.4191 18.8381C20.4191 19.4476 19.6064 19.7524 18.8952 19.7524C17.8794 19.7524 17.3206 19.6 16.4571 19.2444L16.1016 19.0921L15.746 21.1746C16.3556 21.4286 17.473 21.6825 18.6413 21.6825C21.3333 21.6825 23.1111 20.4127 23.1111 18.4825C23.1111 17.4159 22.4508 16.6032 20.927 15.9428C20.0127 15.4857 19.454 15.2317 19.454 14.7746C19.454 14.3682 19.9111 13.9619 20.927 13.9619C21.7905 13.9619 22.4 14.1143 22.8571 14.3175L23.1111 14.419L23.5175 12.4381Z" fill="#3C58BF"/>
<path d="M23.5175 12.4381C23.0095 12.2349 22.1968 12.0317 21.181 12.0317C18.6413 12.0317 17.2698 13.3016 17.2698 15.1302C17.2698 16.5016 18.0825 17.2127 19.0984 17.6698C20.1143 18.127 20.4191 18.4317 20.4191 18.8381C20.4191 19.4476 19.6064 19.7524 18.8952 19.7524C17.8794 19.7524 17.3206 19.6 16.4571 19.2444L16.1016 19.0921L15.746 21.1746C16.3556 21.4286 17.473 21.6825 18.6413 21.6825C21.3333 21.6825 23.1111 20.4127 23.1111 18.4825C23.1111 17.4159 22.4508 16.6032 20.927 15.9428C20.0127 15.4857 19.454 15.2317 19.454 14.7746C19.454 14.3682 19.9111 13.9619 20.927 13.9619C21.7905 13.9619 22.4 14.1143 22.8571 14.3175L23.1111 14.419L23.5175 12.4381Z" fill="#293688"/>
<path d="M27.8856 12.3364C27.2761 12.3364 26.819 12.3872 26.565 12.9967L22.7555 21.4793H25.4983L26.0063 19.9555H29.2571L29.5618 21.4793H31.9999L29.8666 12.3364H27.8856ZM26.7174 18.4317C26.8698 17.9745 27.7333 15.7396 27.7333 15.7396C27.7333 15.7396 27.9364 15.1809 28.0888 14.8253L28.2412 15.6888C28.2412 15.6888 28.7491 17.9745 28.8507 18.4825H26.7174V18.4317Z" fill="#3C58BF"/>
<path d="M28.4952 12.3364C27.8856 12.3364 27.4285 12.3872 27.1745 12.9967L22.7555 21.4793H25.4983L26.0063 19.9555H29.2571L29.5618 21.4793H31.9999L29.8666 12.3364H28.4952ZM26.7174 18.4317C26.9206 17.9237 27.7333 15.7396 27.7333 15.7396C27.7333 15.7396 27.9364 15.1809 28.0888 14.8253L28.2412 15.6888C28.2412 15.6888 28.7491 17.9745 28.8507 18.4825H26.7174V18.4317Z" fill="#293688"/>
<path d="M7.06032 18.7364L6.80635 17.4158C6.34921 15.892 4.87619 14.2158 3.25079 13.4031L5.53651 21.53H8.27937L12.3937 12.3872H9.65079L7.06032 18.7364Z" fill="#3C58BF"/>
<path d="M7.06032 18.7364L6.80635 17.4158C6.34921 15.892 4.87619 14.2158 3.25079 13.4031L5.53651 21.53H8.27937L12.3937 12.3872H10.1587L7.06032 18.7364Z" fill="#293688"/>
<path d="M0 12.3364L0.457143 12.438C3.70794 13.1999 5.94286 15.1301 6.80635 17.4158L5.89206 13.0983C5.73968 12.4888 5.28254 12.3364 4.72381 12.3364H0Z" fill="#FFBC00"/>
<path d="M0 12.3364C3.25079 13.0983 5.94286 15.0793 6.80635 17.365L5.94286 13.7586C5.79047 13.1491 5.28254 12.7936 4.72381 12.7936L0 12.3364Z" fill="#F7981D"/>
<path d="M0 12.3364C3.25079 13.0983 5.94286 15.0793 6.80635 17.365L6.19682 15.384C6.04444 14.7745 5.84127 14.165 5.13016 13.911L0 12.3364Z" fill="#ED7C00"/>
<path d="M9.59999 18.4317L7.873 16.7047L7.0603 18.6348L6.85713 17.365C6.39999 15.8412 4.92697 14.165 3.30157 13.3523L5.58729 21.4793H8.33015L9.59999 18.4317Z" fill="#051244"/>
<path d="M14.3238 21.4793L12.1396 19.2444L11.7333 21.4793H14.3238Z" fill="#051244"/>
<path d="M20.1651 18.3301C20.3683 18.5333 20.4698 18.6856 20.4191 18.8888C20.4191 19.4983 19.6064 19.8031 18.8952 19.8031C17.8794 19.8031 17.3206 19.6507 16.4571 19.2952L16.1016 19.1428L15.746 21.2253C16.3556 21.4793 17.473 21.7333 18.6413 21.7333C20.2667 21.7333 21.5873 21.2761 22.3492 20.4634L20.1651 18.3301Z" fill="#051244"/>
<path d="M23.1111 21.4792H25.4984L26.0063 19.9554H29.2571L29.5619 21.4792H32L31.1365 17.7712L28.0889 14.8252L28.2412 15.6379C28.2412 15.6379 28.7492 17.9236 28.8508 18.4315H26.7174C26.9206 17.9236 27.7333 15.7395 27.7333 15.7395C27.7333 15.7395 27.9365 15.1808 28.0889 14.8252" fill="#051244"/>
</svg>
